<svg width="46" height="46" viewBox="0 0 46 46" fill="none" xmlns="http://www.w3.org/2000/svg">
<path d="M23 0C35.7025 0 46 10.2975 46 23C46 35.7025 35.7025 46 23 46C10.2975 46 0 35.7025 0 23C0 10.2975 10.2975 0 23 0ZM23.0508 9.35547C21.9466 9.35571 21.051 10.2513 21.0508 11.3555V21.0508H11.3555C10.2513 21.051 9.35571 21.9466 9.35547 23.0508V23.7285C9.35553 24.8329 10.2511 25.7283 11.3555 25.7285H21.0508V35.4229C21.0508 36.5273 21.9464 37.4226 23.0508 37.4229H23.7285C24.833 37.4228 25.7285 36.5274 25.7285 35.4229V25.7285H35.4229C36.5274 25.7285 37.4228 24.833 37.4229 23.7285V23.0508C37.4226 21.9464 36.5273 21.0508 35.4229 21.0508H25.7285V11.3555C25.7283 10.2512 24.8329 9.35553 23.7285 9.35547H23.0508Z" fill="#3E3030"/>
</svg>
