<svg width="42" height="37" viewBox="0 0 42 37" fill="none" xmlns="http://www.w3.org/2000/svg">
<path fill-rule="evenodd" clip-rule="evenodd" d="M22.9094 1.61564C23.0456 1.61565 23.1565 1.72657 23.1565 1.86271C23.1561 1.99852 23.0453 2.10879 22.9094 2.1088H22.6213C22.6488 2.18618 22.6663 2.26907 22.6663 2.35587C22.6662 2.47944 22.632 2.59434 22.5784 2.69669C22.9191 2.85598 23.1554 3.20107 23.1555 3.60197V4.56095C23.1555 4.61694 23.1488 4.67153 23.1399 4.72501C30.8896 5.79841 36.8583 12.495 36.8587 20.5971C36.8587 29.4466 29.7378 36.6213 20.9534 36.6215C12.169 36.6213 5.04713 29.4466 5.04713 20.5971C5.04746 12.3292 11.2643 5.52401 19.2454 4.66544C19.2418 4.63112 19.2405 4.59622 19.2405 4.56095V3.60197C19.2407 3.20152 19.4766 2.85622 19.8167 2.69669C19.7632 2.59447 19.7298 2.47921 19.7297 2.35587C19.7297 2.26899 19.7481 2.18624 19.7756 2.1088H19.4876C19.3517 2.1088 19.2419 1.99853 19.2415 1.86271C19.2415 1.72656 19.3514 1.61564 19.4876 1.61564H22.9094ZM20.9534 6.05314C12.9801 6.05336 6.51522 12.5647 6.5149 20.5971C6.5149 28.6297 12.9799 35.1418 20.9534 35.142C28.9269 35.1418 35.3909 28.6297 35.3909 20.5971C35.3906 12.5647 28.9267 6.05335 20.9534 6.05314ZM21.3206 9.99747C22.1989 9.9976 22.9114 10.7099 22.9114 11.5883V19.6117H30.8518C31.7368 19.6117 32.4544 20.3293 32.4544 21.2143C32.4542 22.0991 31.7367 22.8168 30.8518 22.8168H21.3323C21.3301 22.8168 21.3276 22.8158 21.3255 22.8158C21.3239 22.8159 21.3221 22.8168 21.3206 22.8168C20.4423 22.8167 19.7298 22.1043 19.7297 21.226V11.5883C19.7297 10.7099 20.4422 9.99758 21.3206 9.99747ZM7.80885 0.204506C8.57328 -0.187133 9.49759 -0.00035812 10.0842 0.62931L11.8831 2.56095C12.7444 3.48565 12.5434 4.96765 11.5081 5.68986C9.05437 7.40142 7.36466 9.02737 5.44069 11.4643C4.66413 12.4476 3.19932 12.543 2.34596 11.6274L0.537365 9.68595C-0.0564745 9.04825 -0.177588 8.09271 0.27174 7.34415C2.3755 3.84001 4.29257 2.00605 7.80885 0.204506ZM31.5149 0.62931C32.1016 -0.000429824 33.0268 -0.187152 33.7913 0.204506C37.3073 2.00597 39.2237 3.8402 41.3274 7.34415C41.7769 8.09284 41.6559 9.04822 41.0618 9.68595L39.2542 11.6274C38.4009 12.5431 36.9361 12.4475 36.1594 11.4643C34.2355 9.02745 32.5456 7.40136 30.0921 5.68986C29.0568 4.96773 28.8551 3.48567 29.7161 2.56095L31.5149 0.62931Z" fill="black"/>
</svg>
