<svg width="66" height="28" viewBox="0 0 66 28" fill="none" xmlns="http://www.w3.org/2000/svg">
<rect x="0.25" y="0.25" width="65.0919" height="26.301" rx="13.1505" fill="black" stroke="black" stroke-width="0.5"/>
<rect x="0.25" y="0.25" width="65.0919" height="26.5831" rx="13.2916" fill="#D9D9D9" stroke="black" stroke-width="0.5"/>
<path d="M13.4004 0.705288C20.4896 0.705487 26.2363 6.45296 26.2363 13.5422C26.2361 20.6313 20.4895 26.3779 13.4004 26.3781H51.9287C59.0177 26.3779 64.7644 20.6312 64.7646 13.5422C64.7646 6.453 59.0178 0.705551 51.9287 0.705288H13.4004Z" fill="#030303"/>
<path d="M14.656 6.53503C15.5064 6.72368 16.301 7.05886 17.0134 7.51257L20.7781 6.02331L19.2878 9.78796C19.7411 10.4999 20.0757 11.2937 20.2644 12.1434L23.9792 13.7528L20.2654 15.3612C20.0768 16.2114 19.7413 17.0054 19.2878 17.7176L20.7781 21.4833L17.0125 19.993C16.3002 20.4465 15.5062 20.782 14.656 20.9706L13.0476 24.6844L11.4382 20.9696C10.5885 20.7809 9.79468 20.4463 9.08276 19.993L5.31812 21.4833L6.80737 17.7186C6.35367 17.0062 6.01849 16.2116 5.82983 15.3612L2.11597 13.7528L5.83081 12.1434C6.01959 11.2935 6.35385 10.499 6.80737 9.78698L5.31812 6.02331L9.08179 7.51257C9.79416 7.05884 10.5889 6.72376 11.4392 6.53503L13.0476 2.82116L14.656 6.53503ZM13.0486 7.00085C9.31954 7.00085 6.29663 10.0247 6.29663 13.7538C6.29703 17.4825 9.31978 20.5057 13.0486 20.5057C16.7771 20.5054 19.8001 17.4823 19.8005 13.7538C19.8005 10.025 16.7773 7.00121 13.0486 7.00085Z" fill="black"/>
</svg>
