<svg width="66" height="28" viewBox="0 0 66 28" fill="none" xmlns="http://www.w3.org/2000/svg">
<rect x="0.25" y="0.250008" width="65.0919" height="26.301" rx="13.1505" fill="black" stroke="white" stroke-width="0.5"/>
<rect x="0.25" y="0.250008" width="65.0919" height="26.5831" rx="13.2916" fill="black" stroke="white" stroke-width="0.5"/>
<path d="M51.7082 0.705296C44.619 0.705454 38.8723 6.45295 38.8723 13.5422C38.8725 20.6313 44.6191 26.378 51.7082 26.3781H13.5412C6.45219 26.3779 0.705477 20.6312 0.705261 13.5422C0.705261 6.45301 6.45206 0.705559 13.5412 0.705296H51.7082Z" fill="#D9D9D9"/>
<path d="M52.126 3.52645C52.568 3.52645 53.0031 3.55868 53.4297 3.61532C49.5633 4.19184 46.5977 7.52592 46.5977 11.5528C46.5978 15.9851 50.1907 19.5781 54.623 19.5782C57.7236 19.5782 60.4114 17.8189 61.748 15.2452C60.8595 19.7487 56.8902 23.1456 52.126 23.1456C46.7086 23.1454 42.3174 18.7535 42.3174 13.336C42.3174 7.91863 46.7086 3.52661 52.126 3.52645Z" fill="#D9D9D9"/>
</svg>
